<svg width="103" height="30" viewBox="0 0 103 30" fill="none" xmlns="http://www.w3.org/2000/svg">
<g id="Frame 1000000967">
<g id="Group">
<path id="Vector" d="M38.8384 19.2945C38.686 19.2945 38.6099 19.2183 38.6099 19.0659V10.9122C38.6099 10.6987 38.6687 10.5706 38.7876 10.5267C38.9054 10.4829 39.0335 10.5463 39.1708 10.7183L42.9337 15.4531L46.7185 10.7183C46.8478 10.551 46.9736 10.4886 47.096 10.5325C47.2183 10.5763 47.2784 10.7033 47.2784 10.9122V19.0659C47.2784 19.2183 47.2022 19.2945 47.0498 19.2945H45.2769C45.1245 19.2945 45.0483 19.2183 45.0483 19.0659V15.909L43.093 18.3561C43.0434 18.4172 42.9903 18.4472 42.9326 18.4472C42.8749 18.4472 42.8218 18.4172 42.7721 18.3561L40.8399 15.9321V19.0659C40.8399 19.2183 40.7637 19.2945 40.6114 19.2945H38.8384Z" fill="#2E4660"/>
<path id="Vector_2" d="M48.4787 19.2945C48.3945 19.2945 48.3367 19.2691 48.3044 19.2172C48.2721 19.1652 48.2733 19.0994 48.3067 19.0198L52.2404 10.7172C52.3247 10.5417 52.4263 10.454 52.5463 10.454C52.6664 10.454 52.7703 10.5417 52.858 10.7172L56.7917 19.0198C56.8263 19.0994 56.8275 19.1652 56.794 19.2172C56.7617 19.2691 56.704 19.2945 56.6197 19.2945H54.6067C54.4809 19.2945 54.3931 19.2333 54.3435 19.111L54.063 18.3907H51.0319L50.7515 19.111C50.7018 19.2333 50.6141 19.2945 50.4883 19.2945H48.4752H48.4787ZM51.7095 16.6755H53.3901L52.5498 14.5193L51.7095 16.6755Z" fill="#2E4660"/>
<path id="Vector_3" d="M58.0511 19.2945C57.8987 19.2945 57.8225 19.2183 57.8225 19.0659V10.9469C57.8225 10.7945 57.8987 10.7183 58.0511 10.7183H59.8806C60.0329 10.7183 60.1091 10.7945 60.1091 10.9469V19.0659C60.1091 19.2183 60.0329 19.2945 59.8806 19.2945H58.0511Z" fill="#2E4660"/>
<path id="Vector_4" d="M62.0298 19.2945C61.8774 19.2945 61.8013 19.2183 61.8013 19.0659V10.9469C61.8013 10.7945 61.8774 10.7183 62.0298 10.7183H63.8593C64.0117 10.7183 64.0879 10.7945 64.0879 10.9469V17.3507H66.6722C66.8246 17.3507 66.9008 17.4269 66.9008 17.5793V19.0659C66.9008 19.2183 66.8246 19.2945 66.6722 19.2945H62.0287H62.0298Z" fill="#2E4660"/>
<path id="Vector_5" d="M68.2166 19.2945C68.0642 19.2945 67.988 19.2183 67.988 19.0659V10.9469C67.988 10.7945 68.0642 10.7183 68.2166 10.7183H71.5559C71.9749 10.7183 72.35 10.7564 72.679 10.8326C73.0091 10.9088 73.2803 11.0127 73.4939 11.1443C73.7074 11.2758 73.884 11.4351 74.0225 11.6221C74.1622 11.8091 74.2603 12.0076 74.3168 12.2166C74.3746 12.4266 74.4023 12.6552 74.4023 12.9022C74.4023 13.3593 74.2949 13.7564 74.0825 14.0911C73.869 14.427 73.5758 14.6901 73.2018 14.8806C74.2384 15.2165 74.7566 15.8837 74.7566 16.8821C74.7566 17.1222 74.7301 17.3496 74.677 17.5654C74.6239 17.7813 74.5246 17.9971 74.3792 18.2141C74.2337 18.4311 74.0479 18.6169 73.8194 18.7716C73.5908 18.9263 73.2872 19.0521 72.9098 19.1491C72.5324 19.246 72.0995 19.2945 71.6113 19.2945H68.2143H68.2166ZM70.2746 14.0449H71.5212C72.1007 14.0449 72.3904 13.8129 72.3904 13.3477C72.3904 12.8826 72.1007 12.6621 71.5212 12.6621H70.2746V14.0461V14.0449ZM70.2746 17.3496H71.5674C72.1699 17.3496 72.4712 17.0864 72.4712 16.56C72.4712 16.0337 72.1699 15.759 71.5674 15.759H70.2746V17.3484V17.3496Z" fill="#2E4660"/>
<path id="Vector_6" d="M80.4425 19.523C79.0435 19.523 77.9193 19.1132 77.072 18.2937C76.2237 17.4742 75.8 16.3776 75.8 15.0064C75.8 13.6351 76.2237 12.5386 77.072 11.7191C77.9204 10.8995 79.0435 10.4898 80.4425 10.4898C81.3693 10.4898 82.1843 10.6733 82.8895 11.0415C83.5948 11.4097 84.1407 11.9349 84.5274 12.6194C84.9141 13.3039 85.108 14.0991 85.108 15.0064C85.108 15.9136 84.9141 16.7089 84.5274 17.3934C84.1407 18.0779 83.5948 18.6042 82.8895 18.9713C82.1843 19.3395 81.3682 19.523 80.4425 19.523ZM78.7296 13.2104C78.3002 13.6524 78.0866 14.2515 78.0866 15.0064C78.0866 15.7613 78.3013 16.3592 78.7296 16.8013C79.1589 17.2433 79.7291 17.465 80.4425 17.465C81.1558 17.465 81.7399 17.2445 82.1727 16.8013C82.6056 16.3592 82.8214 15.7601 82.8214 15.0064C82.8214 14.2527 82.6056 13.6536 82.1727 13.2104C81.7399 12.7683 81.1639 12.5467 80.4425 12.5467C79.7211 12.5467 79.1589 12.7683 78.7296 13.2104Z" fill="#2E4660"/>
<path id="Vector_7" d="M90.2653 19.523C89.8463 19.523 89.4492 19.4873 89.0764 19.4145C88.7024 19.3418 88.3504 19.2252 88.0191 19.0625C87.6878 18.9009 87.4027 18.7001 87.1638 18.4623C86.926 18.2245 86.7367 17.929 86.5982 17.5758C86.4585 17.2238 86.3893 16.8313 86.3893 16.4008V10.9457C86.3893 10.7934 86.4655 10.7172 86.6178 10.7172H88.505C88.6574 10.7172 88.7336 10.7934 88.7336 10.9457V15.7948C88.7336 16.3708 88.8617 16.7921 89.1191 17.061C89.3765 17.3299 89.7586 17.4638 90.2653 17.4638C90.772 17.4638 91.1633 17.3299 91.4172 17.0633C91.6712 16.7967 91.797 16.3731 91.797 15.7936V10.9446C91.797 10.7922 91.8732 10.716 92.0255 10.716H93.9127C94.0651 10.716 94.1413 10.7922 94.1413 10.9446V16.3996C94.1413 16.9375 94.0397 17.4096 93.8354 17.8182C93.6311 18.2257 93.3495 18.5523 92.9893 18.7959C92.6292 19.0394 92.2206 19.2218 91.7624 19.3418C91.3041 19.4619 90.8055 19.5219 90.2641 19.5219L90.2653 19.523Z" fill="#2E4660"/>
<path id="Vector_8" d="M95.3775 19.2945C95.2863 19.2945 95.2263 19.2691 95.1997 19.2172C95.1732 19.1652 95.1824 19.0994 95.2286 19.0198L97.7102 14.9937L95.2517 10.9907C95.2055 10.9111 95.1963 10.8453 95.2228 10.7934C95.2493 10.7414 95.3082 10.716 95.4006 10.716H97.619C97.7414 10.716 97.8291 10.7737 97.8822 10.888L99.0826 13.4043L100.272 10.888C100.325 10.7737 100.412 10.716 100.535 10.716H102.765C102.856 10.716 102.915 10.7414 102.942 10.7934C102.969 10.8453 102.96 10.9111 102.914 10.9907L100.455 14.9937L102.925 19.0198C102.971 19.0994 102.981 19.1652 102.954 19.2172C102.927 19.2691 102.869 19.2945 102.776 19.2945H100.535C100.412 19.2945 100.325 19.2368 100.272 19.1225L99.0826 16.6178L97.8822 19.1225C97.8291 19.2368 97.7414 19.2945 97.619 19.2945H95.3775Z" fill="#2E4660"/>
</g>
<path id="Vector_9" d="M26.78 0.27919H1.52478C0.683323 0.27919 0 0.961359 0 1.80397V28.173C0 29.0157 0.682168 29.6978 1.52478 29.6978H26.78C27.6226 29.6978 28.3048 29.0157 28.3048 28.173V1.80397C28.3048 0.961359 27.6226 0.27919 26.78 0.27919ZM11.0682 5.97777L13.5741 3.62885C13.8996 3.32297 14.4063 3.32297 14.733 3.62885L17.2377 5.97777C17.5944 6.31251 17.5944 6.87925 17.2377 7.21399L14.7318 9.56291C14.4052 9.86878 13.8984 9.86878 13.5729 9.56291L11.067 7.21399C10.7104 6.87925 10.7104 6.31251 11.067 5.97777H11.0682ZM23.8124 17.7085V24.379C23.8124 25.06 23.2606 25.6129 22.5785 25.6129H5.72859C5.04758 25.6129 4.49469 25.0612 4.49469 24.379V8.97654C4.49469 8.2609 5.34884 7.89154 5.87057 8.37979L8.13984 10.5082L9.20869 11.5101C9.42569 11.7144 9.55035 11.9995 9.55035 12.2985L9.55266 18.2706C9.55266 18.7497 9.76735 19.2021 10.1367 19.5069L13.1366 21.9735C13.7276 22.4595 14.5795 22.4595 15.1716 21.9735L18.1704 19.5069C18.5397 19.2021 18.7544 18.7497 18.7544 18.2706L18.7567 12.2985C18.7567 11.9995 18.8814 11.7144 19.0984 11.5101L20.1672 10.5082L22.4365 8.37979C22.9582 7.89038 23.8124 8.25974 23.8124 8.97539V17.7085Z" fill="#5C8CC0"/>
</g>
</svg>
