<svg xmlns="http://www.w3.org/2000/svg" width="20" height="21" viewBox="0 0 20 21" fill="none">
  <path d="M10 0.977051C4.47715 0.977051 0 5.4542 0 10.9771C0 16.4999 4.47715 20.9771 10 20.9771C15.5228 20.9771 20 16.4999 20 10.9771C19.9936 5.45687 15.5202 0.98348 10 0.977051Z" fill="#5C8CC0"/>
  <path d="M15.7725 7.81042L10.0683 15.5513C9.93228 15.7317 9.72942 15.85 9.50533 15.8795C9.28124 15.9089 9.05472 15.8471 8.87665 15.7079L4.80331 12.4513C4.44387 12.1636 4.38567 11.639 4.67331 11.2796C4.96096 10.9201 5.48554 10.8619 5.84498 11.1496L9.24165 13.8671L14.4308 6.82459C14.601 6.56925 14.8977 6.42808 15.2032 6.45712C15.5086 6.48617 15.7734 6.68073 15.8924 6.96357C16.0114 7.2464 15.9653 7.57175 15.7725 7.81042Z" fill="white"/>
</svg>