<svg xmlns="http://www.w3.org/2000/svg" width="68" height="70" viewBox="0 0 68 70" fill="none">
<path d="M63.4558 0.142395H3.60701C1.61296 0.142395 -0.00634766 1.75897 -0.00634766 3.75576V66.2442C-0.00634766 68.241 1.61023 69.8575 3.60701 69.8575H63.4558C65.4526 69.8575 67.0692 68.241 67.0692 66.2442V3.75576C67.0692 1.75897 65.4526 0.142395 63.4558 0.142395ZM26.2227 13.6467L32.161 8.0803C32.9324 7.35544 34.1332 7.35544 34.9073 8.0803L40.8429 13.6467C41.6882 14.4399 41.6882 15.783 40.8429 16.5762L34.9046 22.1426C34.1305 22.8675 32.9297 22.8675 32.1583 22.1426L26.2199 16.5762C25.3747 15.783 25.3747 14.4399 26.2199 13.6467H26.2227ZM56.4233 41.4458V57.2532C56.4233 58.867 55.1159 60.1772 53.4993 60.1772H13.5691C11.9552 60.1772 10.645 58.8698 10.645 57.2532V20.753C10.645 19.0571 12.6691 18.1818 13.9055 19.3389L19.2831 24.3828L21.816 26.7571C22.3303 27.2412 22.6257 27.9169 22.6257 28.6253L22.6312 42.7779C22.6312 43.913 23.1399 44.9853 24.0152 45.7074L31.1243 51.5528C32.5248 52.7043 34.5435 52.7043 35.9467 51.5528L43.0531 45.7074C43.9284 44.9853 44.4372 43.913 44.4372 42.7779L44.4426 28.6253C44.4426 27.9169 44.738 27.2412 45.2523 26.7571L47.7852 24.3828L53.1628 19.3389C54.3992 18.1791 56.4233 19.0544 56.4233 20.7503V41.4458Z" fill="#5C8CC0"/>
</svg>