<svg xmlns="http://www.w3.org/2000/svg" width="153" height="22" viewBox="0 0 153 22" fill="none">
  <path d="M1.03182 21.2041C0.67076 21.2041 0.490234 21.0236 0.490234 20.6625V1.3402C0.490234 0.834167 0.62973 0.530547 0.911468 0.426605C1.19047 0.322663 1.49409 0.473107 1.8196 0.88067L10.7367 12.101L19.7059 0.88067C20.0122 0.484048 20.3104 0.33634 20.6003 0.440283C20.8903 0.544225 21.0325 0.845108 21.0325 1.3402V20.6625C21.0325 21.0236 20.852 21.2041 20.4909 21.2041H16.2895C15.9284 21.2041 15.7479 21.0236 15.7479 20.6625V13.1814L11.1142 18.9803C10.9966 19.1253 10.8708 19.1964 10.734 19.1964C10.5972 19.1964 10.4714 19.1253 10.3538 18.9803L5.77487 13.2361V20.6625C5.77487 21.0236 5.59434 21.2041 5.23328 21.2041H1.03182Z" fill="#2E4660"/>
  <path d="M23.877 21.2041C23.6773 21.2041 23.5406 21.1439 23.464 21.0208C23.3874 20.8977 23.3901 20.7418 23.4694 20.5531L32.7914 0.87793C32.9911 0.462161 33.2318 0.254272 33.5163 0.254272C33.8008 0.254272 34.0469 0.462161 34.2548 0.87793L43.5768 20.5531C43.6588 20.7418 43.6616 20.8977 43.5823 21.0208C43.5057 21.1439 43.3689 21.2041 43.1692 21.2041H38.3988C38.1007 21.2041 37.8928 21.0591 37.7752 20.7692L37.1105 19.0623H29.9275L29.2629 20.7692C29.1452 21.0591 28.9373 21.2041 28.6392 21.2041H23.8688H23.877ZM31.5332 14.9977H35.5158L33.5245 9.88807L31.5332 14.9977Z" fill="#2E4660"/>
  <path d="M46.5611 21.2041C46.2001 21.2041 46.0195 21.0236 46.0195 20.6625V1.42227C46.0195 1.06121 46.2001 0.880676 46.5611 0.880676H50.8966C51.2577 0.880676 51.4382 1.06121 51.4382 1.42227V20.6625C51.4382 21.0236 51.2577 21.2041 50.8966 21.2041H46.5611Z" fill="#2E4660"/>
  <path d="M55.9898 21.2041C55.6288 21.2041 55.4482 21.0236 55.4482 20.6625V1.42227C55.4482 1.06121 55.6288 0.880676 55.9898 0.880676H60.3253C60.6864 0.880676 60.8669 1.06121 60.8669 1.42227V16.5978H66.9913C67.3524 16.5978 67.5329 16.7784 67.5329 17.1394V20.6625C67.5329 21.0236 67.3524 21.2041 66.9913 21.2041H55.9871H55.9898Z" fill="#2E4660"/>
  <path d="M70.651 21.2041C70.2899 21.2041 70.1094 21.0236 70.1094 20.6625V1.42227C70.1094 1.06121 70.2899 0.880676 70.651 0.880676H78.5643C79.5572 0.880676 80.4462 0.970943 81.2257 1.15147C82.008 1.33201 82.6508 1.57818 83.1569 1.89001C83.6629 2.20184 84.0814 2.57931 84.4096 3.02243C84.7406 3.46556 84.9731 3.93603 85.1071 4.43112C85.2439 4.92895 85.3096 5.47055 85.3096 6.0559C85.3096 7.13909 85.0552 8.08004 84.5519 8.87329C84.0459 9.66927 83.3511 10.2929 82.4648 10.7442C84.9212 11.5402 86.1493 13.1212 86.1493 15.4873C86.1493 16.0562 86.0864 16.5951 85.9606 17.1066C85.8347 17.6181 85.5995 18.1296 85.2549 18.6439C84.9102 19.1581 84.4698 19.5985 83.9282 19.965C83.3866 20.3315 82.6672 20.6297 81.7728 20.8595C80.8783 21.0892 79.8526 21.2041 78.6956 21.2041H70.6455H70.651ZM75.528 8.76387H78.4822C79.8553 8.76387 80.5419 8.21407 80.5419 7.11174C80.5419 6.0094 79.8553 5.48696 78.4822 5.48696H75.528V8.76661V8.76387ZM75.528 16.5951H78.5916C80.0194 16.5951 80.7334 15.9714 80.7334 14.7241C80.7334 13.4768 80.0194 12.8258 78.5916 12.8258H75.528V16.5924V16.5951Z" fill="#2E4660"/>
  <path d="M99.6235 21.7457C96.3083 21.7457 93.6441 20.7746 91.6364 18.8326C89.6259 16.8905 88.6221 14.2919 88.6221 11.0424C88.6221 7.7928 89.6259 5.19424 91.6364 3.25217C93.6468 1.31009 96.3083 0.33905 99.6235 0.33905C101.82 0.33905 103.751 0.773966 105.422 1.64653C107.094 2.5191 108.387 3.76367 109.304 5.38572C110.22 7.00776 110.68 8.8924 110.68 11.0424C110.68 13.1923 110.22 15.077 109.304 16.699C108.387 18.321 107.094 19.5684 105.422 20.4382C103.751 21.3108 101.817 21.7457 99.6235 21.7457ZM95.5643 6.7862C94.5468 7.83383 94.0407 9.25346 94.0407 11.0424C94.0407 12.8313 94.5495 14.2482 95.5643 15.2958C96.5818 16.3434 97.9331 16.8686 99.6235 16.8686C101.314 16.8686 102.698 16.3462 103.724 15.2958C104.75 14.2482 105.261 12.8285 105.261 11.0424C105.261 9.2562 104.75 7.83656 103.724 6.7862C102.698 5.73857 101.333 5.21339 99.6235 5.21339C97.9139 5.21339 96.5818 5.73857 95.5643 6.7862Z" fill="#2E4660"/>
  <path d="M122.902 21.7457C121.909 21.7457 120.968 21.661 120.084 21.4886C119.198 21.3163 118.364 21.04 117.579 20.6544C116.794 20.2714 116.118 19.7955 115.552 19.232C114.988 18.6685 114.54 17.9683 114.211 17.1313C113.88 16.297 113.716 15.367 113.716 14.3467V1.41957C113.716 1.05851 113.897 0.877982 114.258 0.877982H118.73C119.091 0.877982 119.272 1.05851 119.272 1.41957V12.9107C119.272 14.2756 119.575 15.274 120.185 15.9113C120.795 16.5486 121.701 16.8659 122.902 16.8659C124.102 16.8659 125.03 16.5486 125.631 15.9168C126.233 15.2849 126.531 14.2811 126.531 12.9079V1.41684C126.531 1.05577 126.712 0.875244 127.073 0.875244H131.545C131.906 0.875244 132.087 1.05577 132.087 1.41684V14.344C132.087 15.6186 131.846 16.7374 131.362 17.7057C130.878 18.6712 130.21 19.4453 129.357 20.0225C128.503 20.5997 127.535 21.0318 126.449 21.3163C125.363 21.6008 124.182 21.743 122.899 21.743L122.902 21.7457Z" fill="#2E4660"/>
  <path d="M135.016 21.2042C134.8 21.2042 134.658 21.144 134.595 21.0209C134.532 20.8978 134.554 20.7419 134.663 20.5532L140.544 11.0123L134.718 1.52625C134.609 1.33751 134.587 1.1816 134.65 1.05851C134.713 0.935421 134.852 0.875244 135.071 0.875244H140.328C140.618 0.875244 140.826 1.01201 140.952 1.28281L143.797 7.24581L146.614 1.28281C146.74 1.01201 146.948 0.875244 147.238 0.875244H152.522C152.738 0.875244 152.878 0.935421 152.943 1.05851C153.006 1.1816 152.985 1.33751 152.875 1.52625L147.049 11.0123L152.902 20.5532C153.012 20.7419 153.034 20.8978 152.971 21.0209C152.908 21.144 152.768 21.2042 152.55 21.2042H147.238C146.948 21.2042 146.74 21.0674 146.614 20.7966L143.797 14.8609L140.952 20.7966C140.826 21.0674 140.618 21.2042 140.328 21.2042H135.016Z" fill="#2E4660"/>
</svg>