<svg width="17" height="17" viewBox="0 0 17 17" fill="none" xmlns="http://www.w3.org/2000/svg">
<g id="Gamification">
<path id="Shape" d="M9.38742 3.71285C9.38918 3.22268 8.99328 2.82386 8.5031 2.82203C8.01292 2.82019 7.61405 3.21631 7.61214 3.70648C7.60629 5.33854 7.17991 6.36586 6.52369 6.9997C5.86018 7.64059 4.81302 8.02358 3.26372 8.04557C2.77599 8.0525 2.38523 8.45167 2.38869 8.93943C2.39216 9.42719 2.78854 9.82078 3.27632 9.82078C4.9973 9.82078 6.01955 10.2754 6.63013 10.9357C7.25431 11.6107 7.59867 12.6613 7.61217 14.1646C7.61648 14.6446 8.0016 15.0342 8.48152 15.0441C8.96144 15.0539 9.36226 14.6805 9.38631 14.2011C9.46602 12.6124 9.88835 11.5462 10.5443 10.8775C11.1893 10.2199 12.1903 9.81498 13.7199 9.82077C14.2071 9.82261 14.6047 9.43145 14.6108 8.9443C14.617 8.45716 14.2293 8.05611 13.7422 8.04569C12.0639 8.00978 11.0172 7.56602 10.3828 6.90713C9.74652 6.24624 9.38156 5.21989 9.38742 3.71285Z" fill="url(#paint0_linear_305_454)"/>
</g>
<defs>
<linearGradient id="paint0_linear_305_454" x1="2.38867" y1="8.93313" x2="14.6109" y2="8.93313" gradientUnits="userSpaceOnUse">
<stop stop-color="#C2A7FF"/>
<stop offset="0.2" stop-color="#F394FA"/>
<stop offset="0.4" stop-color="#FAB1B4"/>
<stop offset="0.6" stop-color="#FAED34"/>
<stop offset="0.8" stop-color="#9EE651"/>
<stop offset="1" stop-color="#0AC9A7"/>
</linearGradient>
</defs>
</svg>
